<mxfile host="app.diagrams.net" agent="Mozilla/5.0 (Macintosh; Intel Mac OS X 10_15_7) AppleWebKit/537.36 (KHTML, like Gecko) Chrome/138.0.0.0 Safari/537.36" version="28.0.7">
  <diagram name="ページ1" id="uNqelElU6OlkTuRF-Idm">
    <mxGraphModel dx="946" dy="610" grid="1" gridSize="10" guides="1" tooltips="1" connect="1" arrows="1" fold="1" page="1" pageScale="1" pageWidth="827" pageHeight="1169" math="0" shadow="0">
      <root>
        <mxCell id="0" />
        <mxCell id="1" parent="0" />
        <mxCell id="LagfkI5NHSEccrpUgfeO-1" value="review" style="swimlane;childLayout=stackLayout;resizeParent=1;resizeParentMax=0;startSize=20;html=1;rounded=1;" vertex="1" parent="1">
          <mxGeometry x="140" y="50" width="510" height="1870" as="geometry" />
        </mxCell>
        <mxCell id="LagfkI5NHSEccrpUgfeO-2" value="User" style="swimlane;startSize=20;html=1;rounded=1;" vertex="1" parent="LagfkI5NHSEccrpUgfeO-1">
          <mxGeometry y="20" width="160" height="1850" as="geometry" />
        </mxCell>
        <mxCell id="LagfkI5NHSEccrpUgfeO-5" value="復習ページを開く" style="ellipse;whiteSpace=wrap;html=1;aspect=fixed;rounded=1;" vertex="1" parent="LagfkI5NHSEccrpUgfeO-2">
          <mxGeometry x="45" y="40" width="70" height="70" as="geometry" />
        </mxCell>
        <mxCell id="LagfkI5NHSEccrpUgfeO-18" style="edgeStyle=orthogonalEdgeStyle;rounded=1;orthogonalLoop=1;jettySize=auto;html=1;exitX=0.5;exitY=1;exitDx=0;exitDy=0;" edge="1" parent="LagfkI5NHSEccrpUgfeO-2" source="LagfkI5NHSEccrpUgfeO-15" target="LagfkI5NHSEccrpUgfeO-17">
          <mxGeometry relative="1" as="geometry" />
        </mxCell>
        <mxCell id="LagfkI5NHSEccrpUgfeO-15" value="エラーメッセージを閲覧" style="whiteSpace=wrap;html=1;rounded=1;" vertex="1" parent="LagfkI5NHSEccrpUgfeO-2">
          <mxGeometry x="20" y="690" width="120" height="60" as="geometry" />
        </mxCell>
        <mxCell id="LagfkI5NHSEccrpUgfeO-17" value="終了" style="ellipse;whiteSpace=wrap;html=1;rounded=1;" vertex="1" parent="LagfkI5NHSEccrpUgfeO-2">
          <mxGeometry x="45" y="790" width="70" height="70" as="geometry" />
        </mxCell>
        <mxCell id="LagfkI5NHSEccrpUgfeO-28" value="&lt;span style=&quot;background-color: transparent; color: light-dark(rgb(0, 0, 0), rgb(255, 255, 255));&quot;&gt;復習の種類を選択する&lt;/span&gt;" style="whiteSpace=wrap;html=1;rounded=1;" vertex="1" parent="LagfkI5NHSEccrpUgfeO-2">
          <mxGeometry x="20" y="140" width="120" height="60" as="geometry" />
        </mxCell>
        <mxCell id="LagfkI5NHSEccrpUgfeO-37" value="出題形式を選択する" style="whiteSpace=wrap;html=1;rounded=1;" vertex="1" parent="LagfkI5NHSEccrpUgfeO-2">
          <mxGeometry x="20" y="310" width="120" height="60" as="geometry" />
        </mxCell>
        <mxCell id="LagfkI5NHSEccrpUgfeO-48" value="回答" style="whiteSpace=wrap;html=1;rounded=1;" vertex="1" parent="LagfkI5NHSEccrpUgfeO-2">
          <mxGeometry x="20" y="1010" width="120" height="60" as="geometry" />
        </mxCell>
        <mxCell id="LagfkI5NHSEccrpUgfeO-52" value="セルフフィードバックを入力，送信" style="whiteSpace=wrap;html=1;rounded=1;" vertex="1" parent="LagfkI5NHSEccrpUgfeO-2">
          <mxGeometry x="20" y="1110" width="120" height="60" as="geometry" />
        </mxCell>
        <mxCell id="LagfkI5NHSEccrpUgfeO-79" value="" style="edgeStyle=orthogonalEdgeStyle;rounded=1;orthogonalLoop=1;jettySize=auto;html=1;" edge="1" parent="LagfkI5NHSEccrpUgfeO-2" source="LagfkI5NHSEccrpUgfeO-75" target="LagfkI5NHSEccrpUgfeO-78">
          <mxGeometry relative="1" as="geometry" />
        </mxCell>
        <mxCell id="LagfkI5NHSEccrpUgfeO-75" value="終了ボタンを押下" style="whiteSpace=wrap;html=1;rounded=1;" vertex="1" parent="LagfkI5NHSEccrpUgfeO-2">
          <mxGeometry x="20" y="1680" width="120" height="60" as="geometry" />
        </mxCell>
        <mxCell id="LagfkI5NHSEccrpUgfeO-78" value="終了" style="ellipse;whiteSpace=wrap;html=1;rounded=1;" vertex="1" parent="LagfkI5NHSEccrpUgfeO-2">
          <mxGeometry x="45" y="1770" width="70" height="70" as="geometry" />
        </mxCell>
        <mxCell id="LagfkI5NHSEccrpUgfeO-82" value="No" style="edgeStyle=orthogonalEdgeStyle;rounded=1;orthogonalLoop=1;jettySize=auto;html=1;exitX=0.5;exitY=0;exitDx=0;exitDy=0;" edge="1" parent="LagfkI5NHSEccrpUgfeO-2" source="LagfkI5NHSEccrpUgfeO-80" target="LagfkI5NHSEccrpUgfeO-17">
          <mxGeometry relative="1" as="geometry" />
        </mxCell>
        <mxCell id="LagfkI5NHSEccrpUgfeO-83" value="Yes" style="edgeStyle=orthogonalEdgeStyle;rounded=1;orthogonalLoop=1;jettySize=auto;html=1;exitX=0.5;exitY=1;exitDx=0;exitDy=0;" edge="1" parent="LagfkI5NHSEccrpUgfeO-2" source="LagfkI5NHSEccrpUgfeO-80" target="LagfkI5NHSEccrpUgfeO-48">
          <mxGeometry relative="1" as="geometry" />
        </mxCell>
        <mxCell id="LagfkI5NHSEccrpUgfeO-80" value="問題を解く？" style="rhombus;whiteSpace=wrap;html=1;rounded=1;" vertex="1" parent="LagfkI5NHSEccrpUgfeO-2">
          <mxGeometry x="40" y="890" width="80" height="80" as="geometry" />
        </mxCell>
        <mxCell id="LagfkI5NHSEccrpUgfeO-3" value="App" style="swimlane;startSize=20;html=1;rounded=1;" vertex="1" parent="LagfkI5NHSEccrpUgfeO-1">
          <mxGeometry x="160" y="20" width="170" height="1850" as="geometry" />
        </mxCell>
        <mxCell id="LagfkI5NHSEccrpUgfeO-6" value="学習曲線に基づいてマテリアル&lt;span style=&quot;background-color: transparent; color: light-dark(rgb(0, 0, 0), rgb(255, 255, 255));&quot;&gt;を抽出するクエリを投げる&lt;/span&gt;" style="whiteSpace=wrap;html=1;rounded=1;" vertex="1" parent="LagfkI5NHSEccrpUgfeO-3">
          <mxGeometry x="25" y="480" width="120" height="60" as="geometry" />
        </mxCell>
        <mxCell id="LagfkI5NHSEccrpUgfeO-13" value="No" style="edgeStyle=orthogonalEdgeStyle;rounded=1;orthogonalLoop=1;jettySize=auto;html=1;exitX=0.5;exitY=1;exitDx=0;exitDy=0;entryX=0.5;entryY=0;entryDx=0;entryDy=0;" edge="1" parent="LagfkI5NHSEccrpUgfeO-3" source="LagfkI5NHSEccrpUgfeO-10" target="LagfkI5NHSEccrpUgfeO-12">
          <mxGeometry relative="1" as="geometry" />
        </mxCell>
        <mxCell id="LagfkI5NHSEccrpUgfeO-23" value="Yes" style="edgeStyle=orthogonalEdgeStyle;rounded=1;orthogonalLoop=1;jettySize=auto;html=1;exitX=1;exitY=0.5;exitDx=0;exitDy=0;entryX=1;entryY=0.5;entryDx=0;entryDy=0;" edge="1" parent="LagfkI5NHSEccrpUgfeO-3" source="LagfkI5NHSEccrpUgfeO-10" target="LagfkI5NHSEccrpUgfeO-20">
          <mxGeometry relative="1" as="geometry" />
        </mxCell>
        <mxCell id="LagfkI5NHSEccrpUgfeO-10" value="結果が正しいか？" style="rhombus;whiteSpace=wrap;html=1;rounded=1;" vertex="1" parent="LagfkI5NHSEccrpUgfeO-3">
          <mxGeometry x="45" y="580" width="80" height="80" as="geometry" />
        </mxCell>
        <mxCell id="LagfkI5NHSEccrpUgfeO-12" value="エラーメッセージを表示" style="whiteSpace=wrap;html=1;rounded=1;" vertex="1" parent="LagfkI5NHSEccrpUgfeO-3">
          <mxGeometry x="25" y="690" width="120" height="60" as="geometry" />
        </mxCell>
        <mxCell id="LagfkI5NHSEccrpUgfeO-47" value="" style="edgeStyle=orthogonalEdgeStyle;rounded=1;orthogonalLoop=1;jettySize=auto;html=1;" edge="1" parent="LagfkI5NHSEccrpUgfeO-3" source="LagfkI5NHSEccrpUgfeO-20" target="LagfkI5NHSEccrpUgfeO-46">
          <mxGeometry relative="1" as="geometry" />
        </mxCell>
        <mxCell id="LagfkI5NHSEccrpUgfeO-20" value="問題を生成" style="whiteSpace=wrap;html=1;rounded=1;" vertex="1" parent="LagfkI5NHSEccrpUgfeO-3">
          <mxGeometry x="25" y="800" width="120" height="60" as="geometry" />
        </mxCell>
        <mxCell id="LagfkI5NHSEccrpUgfeO-26" value="復習の種類選択ボタン（本日分の復習，自由に出題）を表示する" style="whiteSpace=wrap;html=1;rounded=1;" vertex="1" parent="LagfkI5NHSEccrpUgfeO-3">
          <mxGeometry x="25" y="45" width="120" height="60" as="geometry" />
        </mxCell>
        <mxCell id="LagfkI5NHSEccrpUgfeO-36" value="" style="edgeStyle=orthogonalEdgeStyle;rounded=1;orthogonalLoop=1;jettySize=auto;html=1;" edge="1" parent="LagfkI5NHSEccrpUgfeO-3" source="LagfkI5NHSEccrpUgfeO-30" target="LagfkI5NHSEccrpUgfeO-35">
          <mxGeometry relative="1" as="geometry" />
        </mxCell>
        <mxCell id="LagfkI5NHSEccrpUgfeO-30" value="入力を受け取る" style="whiteSpace=wrap;html=1;rounded=1;" vertex="1" parent="LagfkI5NHSEccrpUgfeO-3">
          <mxGeometry x="25" y="220" width="120" height="60" as="geometry" />
        </mxCell>
        <mxCell id="LagfkI5NHSEccrpUgfeO-35" value="出題形式選択ボタン（フラッシュカード，ディクテーションなど）を表示する" style="whiteSpace=wrap;html=1;rounded=1;" vertex="1" parent="LagfkI5NHSEccrpUgfeO-3">
          <mxGeometry x="25" y="310" width="120" height="60" as="geometry" />
        </mxCell>
        <mxCell id="LagfkI5NHSEccrpUgfeO-44" style="edgeStyle=orthogonalEdgeStyle;rounded=1;orthogonalLoop=1;jettySize=auto;html=1;exitX=0.5;exitY=1;exitDx=0;exitDy=0;" edge="1" parent="LagfkI5NHSEccrpUgfeO-3" source="LagfkI5NHSEccrpUgfeO-39" target="LagfkI5NHSEccrpUgfeO-6">
          <mxGeometry relative="1" as="geometry" />
        </mxCell>
        <mxCell id="LagfkI5NHSEccrpUgfeO-39" value="入力を受け取る" style="whiteSpace=wrap;html=1;rounded=1;" vertex="1" parent="LagfkI5NHSEccrpUgfeO-3">
          <mxGeometry x="25" y="390" width="120" height="60" as="geometry" />
        </mxCell>
        <mxCell id="LagfkI5NHSEccrpUgfeO-46" value="問題ページを表示" style="whiteSpace=wrap;html=1;rounded=1;" vertex="1" parent="LagfkI5NHSEccrpUgfeO-3">
          <mxGeometry x="25" y="900" width="120" height="60" as="geometry" />
        </mxCell>
        <mxCell id="LagfkI5NHSEccrpUgfeO-50" value="正解を表示" style="whiteSpace=wrap;html=1;rounded=1;" vertex="1" parent="LagfkI5NHSEccrpUgfeO-3">
          <mxGeometry x="25" y="1010" width="120" height="60" as="geometry" />
        </mxCell>
        <mxCell id="LagfkI5NHSEccrpUgfeO-54" value="&amp;nbsp;フィードバック結果を元にDBに更新を依頼" style="whiteSpace=wrap;html=1;rounded=1;" vertex="1" parent="LagfkI5NHSEccrpUgfeO-3">
          <mxGeometry x="25" y="1170" width="120" height="60" as="geometry" />
        </mxCell>
        <mxCell id="LagfkI5NHSEccrpUgfeO-61" value="No" style="edgeStyle=orthogonalEdgeStyle;rounded=1;orthogonalLoop=1;jettySize=auto;html=1;exitX=0.5;exitY=1;exitDx=0;exitDy=0;" edge="1" parent="LagfkI5NHSEccrpUgfeO-3" source="LagfkI5NHSEccrpUgfeO-58" target="LagfkI5NHSEccrpUgfeO-60">
          <mxGeometry relative="1" as="geometry" />
        </mxCell>
        <mxCell id="LagfkI5NHSEccrpUgfeO-85" value="Yes" style="edgeStyle=orthogonalEdgeStyle;rounded=1;orthogonalLoop=1;jettySize=auto;html=1;exitX=0;exitY=0.5;exitDx=0;exitDy=0;entryX=0;entryY=0.5;entryDx=0;entryDy=0;" edge="1" parent="LagfkI5NHSEccrpUgfeO-3" source="LagfkI5NHSEccrpUgfeO-58" target="LagfkI5NHSEccrpUgfeO-64">
          <mxGeometry relative="1" as="geometry">
            <Array as="points">
              <mxPoint x="10" y="1300" />
              <mxPoint x="10" y="1500" />
            </Array>
          </mxGeometry>
        </mxCell>
        <mxCell id="LagfkI5NHSEccrpUgfeO-58" value="処理が正常に終了したか？" style="rhombus;whiteSpace=wrap;html=1;rounded=1;" vertex="1" parent="LagfkI5NHSEccrpUgfeO-3">
          <mxGeometry x="45" y="1260" width="80" height="80" as="geometry" />
        </mxCell>
        <mxCell id="LagfkI5NHSEccrpUgfeO-86" style="edgeStyle=orthogonalEdgeStyle;rounded=1;orthogonalLoop=1;jettySize=auto;html=1;exitX=0.5;exitY=1;exitDx=0;exitDy=0;" edge="1" parent="LagfkI5NHSEccrpUgfeO-3" source="LagfkI5NHSEccrpUgfeO-60" target="LagfkI5NHSEccrpUgfeO-64">
          <mxGeometry relative="1" as="geometry" />
        </mxCell>
        <mxCell id="LagfkI5NHSEccrpUgfeO-60" value="エラーメッセージを表示" style="whiteSpace=wrap;html=1;rounded=1;" vertex="1" parent="LagfkI5NHSEccrpUgfeO-3">
          <mxGeometry x="25" y="1370" width="120" height="60" as="geometry" />
        </mxCell>
        <mxCell id="LagfkI5NHSEccrpUgfeO-67" style="edgeStyle=orthogonalEdgeStyle;rounded=1;orthogonalLoop=1;jettySize=auto;html=1;exitX=0.5;exitY=1;exitDx=0;exitDy=0;" edge="1" parent="LagfkI5NHSEccrpUgfeO-3" source="LagfkI5NHSEccrpUgfeO-64" target="LagfkI5NHSEccrpUgfeO-66">
          <mxGeometry relative="1" as="geometry" />
        </mxCell>
        <mxCell id="LagfkI5NHSEccrpUgfeO-64" value="解いた問題数を更新" style="whiteSpace=wrap;html=1;rounded=1;" vertex="1" parent="LagfkI5NHSEccrpUgfeO-3">
          <mxGeometry x="25" y="1470" width="120" height="60" as="geometry" />
        </mxCell>
        <mxCell id="LagfkI5NHSEccrpUgfeO-68" value="Yes" style="edgeStyle=orthogonalEdgeStyle;rounded=1;orthogonalLoop=1;jettySize=auto;html=1;exitX=1;exitY=0.5;exitDx=0;exitDy=0;entryX=1;entryY=0.75;entryDx=0;entryDy=0;" edge="1" parent="LagfkI5NHSEccrpUgfeO-3" source="LagfkI5NHSEccrpUgfeO-66" target="LagfkI5NHSEccrpUgfeO-20">
          <mxGeometry relative="1" as="geometry">
            <Array as="points">
              <mxPoint x="160" y="1610" />
              <mxPoint x="160" y="845" />
            </Array>
          </mxGeometry>
        </mxCell>
        <mxCell id="LagfkI5NHSEccrpUgfeO-70" value="" style="edgeStyle=orthogonalEdgeStyle;rounded=1;orthogonalLoop=1;jettySize=auto;html=1;" edge="1" parent="LagfkI5NHSEccrpUgfeO-3" source="LagfkI5NHSEccrpUgfeO-66" target="LagfkI5NHSEccrpUgfeO-69">
          <mxGeometry relative="1" as="geometry" />
        </mxCell>
        <mxCell id="LagfkI5NHSEccrpUgfeO-87" value="No" style="edgeLabel;html=1;align=center;verticalAlign=middle;resizable=0;points=[];rounded=1;" vertex="1" connectable="0" parent="LagfkI5NHSEccrpUgfeO-70">
          <mxGeometry x="0.6" y="2" relative="1" as="geometry">
            <mxPoint as="offset" />
          </mxGeometry>
        </mxCell>
        <mxCell id="LagfkI5NHSEccrpUgfeO-66" value="出題していないマテリアルがあるか" style="rhombus;whiteSpace=wrap;html=1;rounded=1;" vertex="1" parent="LagfkI5NHSEccrpUgfeO-3">
          <mxGeometry x="45" y="1570" width="80" height="80" as="geometry" />
        </mxCell>
        <mxCell id="LagfkI5NHSEccrpUgfeO-69" value="リザルト画面を表示" style="whiteSpace=wrap;html=1;rounded=1;" vertex="1" parent="LagfkI5NHSEccrpUgfeO-3">
          <mxGeometry x="25" y="1680" width="120" height="60" as="geometry" />
        </mxCell>
        <mxCell id="LagfkI5NHSEccrpUgfeO-4" value="DB" style="swimlane;startSize=20;html=1;rounded=1;" vertex="1" parent="LagfkI5NHSEccrpUgfeO-1">
          <mxGeometry x="330" y="20" width="180" height="1850" as="geometry" />
        </mxCell>
        <mxCell id="LagfkI5NHSEccrpUgfeO-8" value="クエリをもとにデータを検索し結果を返す" style="whiteSpace=wrap;html=1;rounded=1;" vertex="1" parent="LagfkI5NHSEccrpUgfeO-4">
          <mxGeometry x="30" y="480" width="120" height="60" as="geometry" />
        </mxCell>
        <mxCell id="LagfkI5NHSEccrpUgfeO-56" value="DBを更新" style="whiteSpace=wrap;html=1;rounded=1;" vertex="1" parent="LagfkI5NHSEccrpUgfeO-4">
          <mxGeometry x="30" y="1170" width="120" height="60" as="geometry" />
        </mxCell>
        <mxCell id="LagfkI5NHSEccrpUgfeO-9" style="edgeStyle=orthogonalEdgeStyle;rounded=1;orthogonalLoop=1;jettySize=auto;html=1;exitX=1;exitY=0.5;exitDx=0;exitDy=0;" edge="1" parent="LagfkI5NHSEccrpUgfeO-1" source="LagfkI5NHSEccrpUgfeO-6" target="LagfkI5NHSEccrpUgfeO-8">
          <mxGeometry relative="1" as="geometry" />
        </mxCell>
        <mxCell id="LagfkI5NHSEccrpUgfeO-16" style="edgeStyle=orthogonalEdgeStyle;rounded=1;orthogonalLoop=1;jettySize=auto;html=1;exitX=0;exitY=0.5;exitDx=0;exitDy=0;" edge="1" parent="LagfkI5NHSEccrpUgfeO-1" source="LagfkI5NHSEccrpUgfeO-12" target="LagfkI5NHSEccrpUgfeO-15">
          <mxGeometry relative="1" as="geometry" />
        </mxCell>
        <mxCell id="LagfkI5NHSEccrpUgfeO-27" style="edgeStyle=orthogonalEdgeStyle;rounded=1;orthogonalLoop=1;jettySize=auto;html=1;exitX=1;exitY=0.5;exitDx=0;exitDy=0;entryX=0;entryY=0.5;entryDx=0;entryDy=0;" edge="1" parent="LagfkI5NHSEccrpUgfeO-1" source="LagfkI5NHSEccrpUgfeO-5" target="LagfkI5NHSEccrpUgfeO-26">
          <mxGeometry relative="1" as="geometry" />
        </mxCell>
        <mxCell id="LagfkI5NHSEccrpUgfeO-29" style="edgeStyle=orthogonalEdgeStyle;rounded=1;orthogonalLoop=1;jettySize=auto;html=1;exitX=0.5;exitY=1;exitDx=0;exitDy=0;entryX=1;entryY=0.5;entryDx=0;entryDy=0;" edge="1" parent="LagfkI5NHSEccrpUgfeO-1" source="LagfkI5NHSEccrpUgfeO-26" target="LagfkI5NHSEccrpUgfeO-28">
          <mxGeometry relative="1" as="geometry" />
        </mxCell>
        <mxCell id="LagfkI5NHSEccrpUgfeO-31" style="edgeStyle=orthogonalEdgeStyle;rounded=1;orthogonalLoop=1;jettySize=auto;html=1;exitX=0.5;exitY=1;exitDx=0;exitDy=0;entryX=0;entryY=0.5;entryDx=0;entryDy=0;" edge="1" parent="LagfkI5NHSEccrpUgfeO-1" source="LagfkI5NHSEccrpUgfeO-28" target="LagfkI5NHSEccrpUgfeO-30">
          <mxGeometry relative="1" as="geometry" />
        </mxCell>
        <mxCell id="LagfkI5NHSEccrpUgfeO-38" style="edgeStyle=orthogonalEdgeStyle;rounded=1;orthogonalLoop=1;jettySize=auto;html=1;exitX=0;exitY=0.5;exitDx=0;exitDy=0;" edge="1" parent="LagfkI5NHSEccrpUgfeO-1" source="LagfkI5NHSEccrpUgfeO-35" target="LagfkI5NHSEccrpUgfeO-37">
          <mxGeometry relative="1" as="geometry" />
        </mxCell>
        <mxCell id="LagfkI5NHSEccrpUgfeO-40" style="edgeStyle=orthogonalEdgeStyle;rounded=1;orthogonalLoop=1;jettySize=auto;html=1;exitX=0.5;exitY=1;exitDx=0;exitDy=0;entryX=0;entryY=0.5;entryDx=0;entryDy=0;" edge="1" parent="LagfkI5NHSEccrpUgfeO-1" source="LagfkI5NHSEccrpUgfeO-37" target="LagfkI5NHSEccrpUgfeO-39">
          <mxGeometry relative="1" as="geometry" />
        </mxCell>
        <mxCell id="LagfkI5NHSEccrpUgfeO-45" style="edgeStyle=orthogonalEdgeStyle;rounded=1;orthogonalLoop=1;jettySize=auto;html=1;exitX=0.5;exitY=1;exitDx=0;exitDy=0;entryX=0.5;entryY=0;entryDx=0;entryDy=0;" edge="1" parent="LagfkI5NHSEccrpUgfeO-1" source="LagfkI5NHSEccrpUgfeO-8" target="LagfkI5NHSEccrpUgfeO-10">
          <mxGeometry relative="1" as="geometry" />
        </mxCell>
        <mxCell id="LagfkI5NHSEccrpUgfeO-53" style="edgeStyle=orthogonalEdgeStyle;rounded=1;orthogonalLoop=1;jettySize=auto;html=1;exitX=0.5;exitY=1;exitDx=0;exitDy=0;entryX=1;entryY=0.5;entryDx=0;entryDy=0;" edge="1" parent="LagfkI5NHSEccrpUgfeO-1" source="LagfkI5NHSEccrpUgfeO-50" target="LagfkI5NHSEccrpUgfeO-52">
          <mxGeometry relative="1" as="geometry" />
        </mxCell>
        <mxCell id="LagfkI5NHSEccrpUgfeO-55" style="edgeStyle=orthogonalEdgeStyle;rounded=1;orthogonalLoop=1;jettySize=auto;html=1;exitX=0.5;exitY=1;exitDx=0;exitDy=0;entryX=0;entryY=0.5;entryDx=0;entryDy=0;" edge="1" parent="LagfkI5NHSEccrpUgfeO-1" source="LagfkI5NHSEccrpUgfeO-52" target="LagfkI5NHSEccrpUgfeO-54">
          <mxGeometry relative="1" as="geometry" />
        </mxCell>
        <mxCell id="LagfkI5NHSEccrpUgfeO-57" style="edgeStyle=orthogonalEdgeStyle;rounded=1;orthogonalLoop=1;jettySize=auto;html=1;exitX=1;exitY=0.5;exitDx=0;exitDy=0;" edge="1" parent="LagfkI5NHSEccrpUgfeO-1" source="LagfkI5NHSEccrpUgfeO-54" target="LagfkI5NHSEccrpUgfeO-56">
          <mxGeometry relative="1" as="geometry" />
        </mxCell>
        <mxCell id="LagfkI5NHSEccrpUgfeO-59" style="edgeStyle=orthogonalEdgeStyle;rounded=1;orthogonalLoop=1;jettySize=auto;html=1;exitX=0.5;exitY=1;exitDx=0;exitDy=0;entryX=1;entryY=0.5;entryDx=0;entryDy=0;" edge="1" parent="LagfkI5NHSEccrpUgfeO-1" source="LagfkI5NHSEccrpUgfeO-56" target="LagfkI5NHSEccrpUgfeO-58">
          <mxGeometry relative="1" as="geometry" />
        </mxCell>
        <mxCell id="LagfkI5NHSEccrpUgfeO-76" style="edgeStyle=orthogonalEdgeStyle;rounded=1;orthogonalLoop=1;jettySize=auto;html=1;exitX=0;exitY=0.5;exitDx=0;exitDy=0;" edge="1" parent="LagfkI5NHSEccrpUgfeO-1" source="LagfkI5NHSEccrpUgfeO-69" target="LagfkI5NHSEccrpUgfeO-75">
          <mxGeometry relative="1" as="geometry" />
        </mxCell>
        <mxCell id="LagfkI5NHSEccrpUgfeO-81" style="edgeStyle=orthogonalEdgeStyle;rounded=1;orthogonalLoop=1;jettySize=auto;html=1;exitX=0;exitY=0.5;exitDx=0;exitDy=0;" edge="1" parent="LagfkI5NHSEccrpUgfeO-1" source="LagfkI5NHSEccrpUgfeO-46" target="LagfkI5NHSEccrpUgfeO-80">
          <mxGeometry relative="1" as="geometry" />
        </mxCell>
        <mxCell id="LagfkI5NHSEccrpUgfeO-84" style="edgeStyle=orthogonalEdgeStyle;rounded=1;orthogonalLoop=1;jettySize=auto;html=1;exitX=1;exitY=0.5;exitDx=0;exitDy=0;" edge="1" parent="LagfkI5NHSEccrpUgfeO-1" source="LagfkI5NHSEccrpUgfeO-48" target="LagfkI5NHSEccrpUgfeO-50">
          <mxGeometry relative="1" as="geometry" />
        </mxCell>
      </root>
    </mxGraphModel>
  </diagram>
</mxfile>
